if (_typeface_js && _typeface_js.loadFace) _typeface_js.loadFace({"glyphs":{"S":{"x_min":72,"x_max":1275.359375,"ha":1296,"o":"m 1275 227 q 1106 40 1275 98 q 831 0 988 0 l 72 0 l 72 201 l 831 201 q 1078 279 1078 201 l 1078 426 q 831 502 1078 502 l 477 502 q 72 694 72 502 l 72 823 q 477 1026 72 1026 l 1232 1026 l 1232 824 l 477 824 q 360 820 384 824 q 273 766 273 810 l 273 749 q 391 702 273 702 q 407 702 398 702 q 433 704 418 702 l 477 704 l 831 704 q 1107 667 997 704 q 1275 477 1275 610 l 1275 227 "},"/":{"x_min":-4.078125,"x_max":1954.5625,"ha":1950,"o":"m 364 -1 l -4 -1 l 1587 1026 l 1954 1026 l 364 -1 "},"y":{"x_min":35,"x_max":1275,"ha":1310,"o":"m 1275 227 q 1104 43 1275 104 q 831 0 986 0 l 235 0 l 235 201 l 831 201 q 1078 285 1078 201 l 1078 320 l 479 320 q 197 366 311 320 q 35 573 35 431 l 35 1026 l 232 1026 l 232 613 q 478 522 232 522 l 1078 522 l 1078 1026 l 1275 1026 l 1275 227 "},"Á":{"x_min":86,"x_max":1326,"ha":1413,"o":"m 1128 0 l 1128 320 l 283 320 l 283 0 l 86 0 l 86 701 q 237 949 86 859 q 531 1026 365 1026 l 868 1026 q 1165 946 1030 1026 q 1326 701 1326 853 l 1326 0 l 1128 0 m 1128 658 q 1033 784 1128 737 q 868 824 951 824 l 531 824 q 377 777 460 824 q 283 658 283 723 l 283 522 l 1128 522 l 1128 658 m 441 1094 l 831 1189 l 863 1120 l 472 1024 l 441 1094 "},"g":{"x_min":120,"x_max":1360,"ha":1480,"o":"m 563 0 q 287 37 397 0 q 120 227 120 93 l 120 796 q 287 987 120 928 q 563 1026 397 1026 l 1360 1026 l 1360 824 l 563 824 q 319 740 319 824 l 319 287 q 563 201 319 201 l 1162 201 l 1162 502 l 492 502 l 492 704 l 1260 704 q 1330 674 1301 704 q 1360 602 1360 644 l 1360 0 l 563 0 "},"ë":{"x_min":78,"x_max":1317.984375,"ha":1397,"o":"m 551 1197 q 600 1179 578 1197 q 622 1136 622 1162 q 600 1091 622 1108 q 551 1075 578 1075 q 501 1091 523 1075 q 479 1136 479 1108 q 500 1180 479 1163 q 551 1197 522 1197 m 783 1197 q 832 1179 810 1197 q 854 1136 854 1162 q 832 1091 854 1108 q 783 1075 810 1075 q 732 1091 754 1075 q 711 1136 711 1108 q 733 1179 711 1162 q 783 1197 755 1197 m 78 0 l 78 1026 l 1317 1026 l 1317 824 l 275 824 l 275 704 l 1126 704 l 1126 502 l 275 502 l 275 201 l 1317 201 l 1317 0 l 78 0 "},"Î":{"x_min":28.765625,"x_max":403.078125,"ha":398,"o":"m 105 0 l 105 1026 l 302 1026 l 302 0 l 105 0 m 303 1216 l 403 1074 l 288 1074 l 213 1164 l 143 1074 l 28 1074 l 126 1216 l 303 1216 "},"e":{"x_min":78,"x_max":1317.984375,"ha":1397,"o":"m 78 0 l 78 1026 l 1317 1026 l 1317 824 l 275 824 l 275 704 l 1126 704 l 1126 502 l 275 502 l 275 201 l 1317 201 l 1317 0 l 78 0 "},"Ã":{"x_min":86,"x_max":1326,"ha":1413,"o":"m 1128 0 l 1128 320 l 283 320 l 283 0 l 86 0 l 86 701 q 237 949 86 859 q 531 1026 365 1026 l 868 1026 q 1165 946 1030 1026 q 1326 701 1326 853 l 1326 0 l 1128 0 m 1128 658 q 1033 784 1128 737 q 868 824 951 824 l 531 824 q 377 777 460 824 q 283 658 283 723 l 283 522 l 1128 522 l 1128 658 m 490 1069 q 610 1207 490 1207 q 725 1169 656 1207 q 822 1132 796 1132 q 883 1207 868 1132 l 904 1207 q 840 1083 904 1119 q 780 1068 810 1068 q 662 1105 733 1068 q 570 1143 593 1143 q 525 1119 540 1143 q 509 1069 518 1108 l 490 1069 "},"J":{"x_min":36.75,"x_max":932.359375,"ha":968,"o":"m 932 227 q 760 43 932 102 q 488 0 642 0 l 36 0 l 36 201 l 488 201 q 735 306 735 201 l 735 1026 l 932 1026 l 932 227 "},"»":{"x_min":71,"x_max":485,"ha":526,"o":"m 411 422 l 272 487 l 272 570 l 485 463 l 485 381 l 272 269 l 272 355 l 411 422 m 209 422 l 71 487 l 71 570 l 283 463 l 283 381 l 71 269 l 71 355 l 209 422 "},"©":{"x_min":56,"x_max":813,"ha":865,"o":"m 56 385 q 85 534 56 464 q 166 657 115 605 q 287 740 218 709 q 434 771 356 771 q 581 740 512 771 q 702 657 650 709 q 783 534 753 605 q 813 385 813 464 q 783 235 813 305 q 702 112 753 164 q 581 29 650 60 q 434 -1 512 -1 q 287 29 356 -1 q 166 112 218 60 q 85 235 115 164 q 56 385 56 305 m 101 383 q 127 250 101 312 q 199 141 154 187 q 305 69 243 96 q 435 42 366 42 q 566 69 505 42 q 673 141 627 96 q 745 250 718 187 q 772 383 772 312 q 745 516 772 454 q 673 626 718 579 q 566 700 627 673 q 435 728 505 728 q 305 700 366 728 q 199 626 243 673 q 127 516 154 579 q 101 383 101 454 m 514 480 q 428 531 479 531 q 352 490 381 531 q 324 379 324 450 q 354 270 324 312 q 430 229 385 229 q 475 240 453 229 q 514 272 498 252 l 582 224 q 429 139 531 139 q 353 157 388 139 q 293 207 318 175 q 254 284 268 240 q 240 379 240 327 q 252 475 240 430 q 290 552 265 519 q 350 602 314 584 q 429 621 385 621 q 585 528 535 621 l 514 480 "},"ò":{"x_min":84,"x_max":1324,"ha":1408,"o":"m 794 1024 l 404 1120 l 435 1189 l 825 1094 l 794 1024 m 1324 227 q 1155 40 1324 99 q 880 0 1034 0 l 527 0 q 255 44 382 0 q 84 227 84 104 l 84 796 q 251 985 84 928 q 527 1026 367 1026 l 880 1026 q 1324 796 1324 1026 l 1324 227 m 1126 744 q 889 824 1126 824 l 518 824 q 287 744 287 824 l 287 279 q 518 201 287 201 l 889 201 q 1126 279 1126 201 l 1126 744 "},"^":{"x_min":84,"x_max":1840,"ha":1924,"o":"m 84 407 l 86 407 l 86 472 l 176 472 l 176 511 l 152 511 l 152 633 l 176 633 l 176 675 l 152 675 l 152 727 l 749 727 l 749 663 q 716 681 739 681 q 654 574 654 681 q 719 469 654 469 q 761 495 739 469 l 761 472 l 794 472 l 794 728 l 1303 728 l 1303 691 l 1350 691 l 1350 727 l 1840 727 l 1840 0 l 84 0 l 84 407 m 1276 472 l 1276 602 q 1212 678 1276 678 q 1170 644 1179 678 q 1132 678 1157 678 q 1094 644 1109 678 l 1094 676 l 1052 676 l 1052 511 l 1026 511 l 1026 472 l 1121 472 l 1121 511 l 1095 511 l 1095 595 q 1121 628 1095 628 q 1141 595 1141 628 l 1141 472 l 1210 472 l 1210 511 l 1185 511 l 1185 595 q 1210 626 1185 626 q 1231 595 1231 626 l 1231 472 l 1276 472 m 1342 371 l 1265 371 l 1265 108 l 1309 108 l 1309 278 l 1319 278 l 1319 108 l 1404 108 l 1404 370 l 1361 370 l 1361 201 l 1356 201 l 1342 371 m 653 370 l 653 108 l 760 108 l 775 137 l 775 223 l 765 242 l 765 246 l 775 267 l 775 343 l 760 370 l 653 370 m 1124 343 l 1124 137 l 1137 108 l 1228 108 l 1245 137 l 1245 343 l 1229 371 l 1137 371 l 1124 343 m 368 371 l 368 108 l 420 108 l 420 223 l 435 223 l 435 108 l 491 108 l 491 213 l 471 242 l 471 246 l 491 275 l 491 343 l 476 371 l 368 371 m 348 407 l 392 407 l 392 484 q 425 468 402 468 q 488 573 488 468 q 422 678 488 678 q 380 651 403 678 l 380 676 l 348 676 l 348 407 m 646 572 q 571 680 646 680 q 498 572 498 680 q 571 467 498 467 q 646 572 646 467 m 1611 289 l 1663 289 l 1663 343 l 1649 371 l 1559 371 l 1545 343 l 1545 250 l 1561 223 l 1611 210 l 1611 158 l 1597 158 l 1597 197 l 1545 197 l 1545 137 l 1559 108 l 1648 108 l 1663 137 l 1663 236 l 1645 267 l 1597 278 l 1597 323 l 1611 323 l 1611 289 m 348 108 l 348 203 l 312 371 l 256 371 l 225 203 l 225 108 l 276 108 l 276 158 l 294 158 l 294 108 l 348 108 m 631 108 l 631 203 l 598 371 l 542 371 l 511 203 l 511 108 l 563 108 l 563 158 l 579 158 l 579 108 l 631 108 m 230 407 l 258 407 q 333 505 333 415 l 333 676 l 288 676 l 288 549 q 260 513 288 513 q 235 549 235 513 l 235 676 l 191 676 l 191 558 q 254 469 191 469 q 288 480 273 469 q 250 448 288 448 l 230 448 l 230 407 m 922 221 l 958 221 l 958 266 l 922 266 l 922 315 l 958 315 l 958 371 l 871 371 l 871 108 l 958 108 l 958 167 l 922 167 l 922 221 m 1070 216 l 1102 216 l 1102 262 l 1070 262 l 1070 315 l 1102 315 l 1102 371 l 1017 371 l 1017 108 l 1070 108 l 1070 216 m 1448 315 l 1448 108 l 1501 108 l 1501 315 l 1529 315 l 1529 371 l 1419 371 l 1419 315 l 1448 315 m 932 676 l 911 676 l 911 644 q 866 680 896 680 q 808 620 808 680 q 838 570 808 583 q 806 524 806 558 q 867 467 806 467 q 915 484 897 467 q 932 540 932 502 l 911 540 q 877 514 907 514 q 850 533 850 514 q 877 558 850 558 l 891 558 l 891 583 l 877 583 q 850 606 850 583 q 877 629 850 629 q 911 601 900 629 l 932 601 l 932 676 m 1491 673 l 1469 673 l 1469 644 q 1428 680 1453 680 q 1361 572 1361 680 q 1430 468 1361 468 q 1491 548 1479 468 l 1469 548 q 1435 517 1465 517 q 1404 572 1404 517 q 1435 629 1404 629 q 1468 591 1468 629 l 1491 591 l 1491 673 m 205 167 l 175 167 l 175 371 l 123 371 l 123 108 l 205 108 l 205 167 m 851 108 l 851 371 l 797 371 l 797 108 l 851 108 m 1007 511 l 988 511 l 988 601 q 1007 629 988 629 q 1023 620 1015 629 l 1038 666 q 1015 678 1027 676 q 973 644 986 678 l 973 676 l 947 676 l 947 472 l 1007 472 l 1007 511 m 1282 676 l 1282 633 l 1303 633 l 1303 472 l 1350 472 l 1350 676 l 1282 676 m 389 606 q 417 627 397 627 q 446 574 446 627 q 416 515 446 515 q 389 537 397 515 l 389 606 m 601 572 q 570 517 601 517 q 542 572 542 517 q 570 629 542 629 q 601 572 601 629 m 752 540 q 724 521 743 521 q 696 573 696 521 q 726 633 696 633 q 752 610 743 633 l 752 540 m 86 511 l 86 633 l 111 633 l 111 511 l 86 511 m 1176 158 l 1176 323 l 1191 323 l 1191 158 l 1176 158 m 86 676 l 86 727 l 111 727 l 111 676 l 86 676 m 276 197 l 276 223 l 284 293 l 286 293 l 294 223 l 294 197 l 276 197 m 563 197 l 563 223 l 570 293 l 577 293 l 577 223 l 577 197 l 563 197 m 706 223 l 721 223 l 721 158 l 706 158 l 706 223 m 706 267 l 706 324 l 721 324 l 721 267 l 706 267 m 420 267 l 420 324 l 435 324 l 435 267 l 420 267 "},"«":{"x_min":56,"x_max":470,"ha":509,"o":"m 129 419 l 268 352 l 268 269 l 56 376 l 56 458 l 268 570 l 268 484 l 129 419 m 330 419 l 470 352 l 470 269 l 257 376 l 257 458 l 470 570 l 470 484 l 330 419 "},"D":{"x_min":86,"x_max":1326,"ha":1412,"o":"m 1326 227 q 1153 47 1326 111 q 882 0 1023 0 l 86 0 l 86 1026 l 882 1026 q 1157 985 1041 1026 q 1326 796 1326 927 l 1326 227 m 1128 749 q 893 824 1128 824 l 283 824 l 283 201 l 882 201 q 1027 226 951 201 q 1128 312 1128 258 l 1128 749 "},"ÿ":{"x_min":35,"x_max":1275,"ha":1310,"o":"m 551 1197 q 600 1179 578 1197 q 622 1136 622 1162 q 600 1091 622 1108 q 551 1075 578 1075 q 501 1091 523 1075 q 479 1136 479 1108 q 500 1180 479 1163 q 551 1197 522 1197 m 782 1197 q 831 1179 809 1197 q 853 1136 853 1162 q 831 1091 853 1108 q 782 1075 809 1075 q 731 1091 753 1075 q 710 1136 710 1108 q 732 1179 710 1162 q 782 1197 754 1197 m 1275 227 q 1104 43 1275 104 q 831 0 986 0 l 235 0 l 235 201 l 831 201 q 1078 285 1078 201 l 1078 320 l 479 320 q 197 366 311 320 q 35 573 35 431 l 35 1026 l 232 1026 l 232 613 q 478 522 232 522 l 1078 522 l 1078 1026 l 1275 1026 l 1275 227 "},"í":{"x_min":60.078125,"x_max":482.015625,"ha":430,"o":"m 105 0 l 105 1026 l 302 1026 l 302 0 l 105 0 m 60 1094 l 450 1189 l 482 1120 l 91 1024 l 60 1094 "},"ˆ":{"x_min":502.25,"x_max":876.5625,"ha":1039,"o":"m 777 1217 l 876 1075 l 762 1075 l 687 1165 l 616 1075 l 502 1075 l 600 1217 l 777 1217 "},"w":{"x_min":87,"x_max":1907,"ha":1995,"o":"m 1907 227 q 1745 29 1907 81 q 1463 0 1648 0 l 530 0 q 255 37 367 0 q 87 227 87 95 l 87 1026 l 284 1026 l 284 298 q 529 201 284 201 l 909 201 l 909 1026 l 1106 1026 l 1106 201 l 1463 201 q 1709 298 1709 201 l 1709 1026 l 1907 1026 l 1907 227 "},"$":{"x_min":90.03125,"x_max":1342,"ha":1444,"o":"m 954 777 q 884 807 914 777 q 854 877 854 837 l 854 1091 l 1052 1091 l 1052 979 l 1341 979 l 1341 777 l 954 777 m 1342 347 q 1212 185 1342 247 q 998 125 1126 142 l 998 3 l 800 3 l 800 222 q 918 328 800 316 q 1144 360 1144 328 l 1144 402 q 993 450 1144 450 q 946 450 977 450 q 898 450 914 450 l 545 450 q 129 601 246 450 q 90 713 90 656 q 218 899 90 826 q 446 970 315 952 l 446 1091 l 644 1091 l 644 877 q 551 777 644 794 q 496 773 532 773 q 315 734 376 761 q 291 717 291 721 l 291 713 q 314 694 296 703 q 545 650 390 650 l 898 650 q 1181 623 1095 650 q 1342 421 1342 573 l 1342 347 m 392 3 l 392 115 l 102 115 l 102 317 l 490 317 q 559 287 529 317 q 589 217 589 257 l 589 3 l 392 3 "},"\\":{"x_min":-1.359375,"x_max":1969.53125,"ha":1968,"o":"m 1595 -1 l -1 1026 l 366 1026 l 1969 -1 l 1595 -1 "},"Ì":{"x_min":-82.84375,"x_max":339.109375,"ha":398,"o":"m 105 0 l 105 1026 l 302 1026 l 302 0 l 105 0 m 307 1024 l -82 1120 l -51 1189 l 339 1094 l 307 1024 "},"Ç":{"x_min":117,"x_max":1357.171875,"ha":776,"o":"m 560 0 q 285 38 396 0 q 117 227 117 97 l 117 796 q 287 982 117 921 q 560 1026 405 1026 l 1357 1026 l 1357 824 l 560 824 q 320 715 320 824 l 320 290 q 560 201 320 201 l 1357 201 l 1357 0 l 560 0 m 801 39 l 768 -15 q 852 -113 852 -33 q 840 -163 852 -141 q 809 -202 828 -186 q 763 -226 789 -217 q 708 -236 737 -236 q 646 -231 682 -236 l 646 -202 q 665 -204 656 -203 q 678 -205 673 -205 q 733 -183 708 -205 q 759 -130 759 -162 q 701 -81 759 -81 q 688 -82 693 -81 l 761 39 l 801 39 "},"’":{"x_min":80.3125,"x_max":348.4375,"ha":429,"o":"m 80 744 l 151 1079 l 348 1079 l 277 744 l 80 744 "},"-":{"x_min":48,"x_max":744,"ha":792,"o":"m 48 417 l 48 618 l 744 618 l 744 417 l 48 417 "},"Q":{"x_min":79,"x_max":1436.046875,"ha":1450,"o":"m 1436 99 q 1406 29 1436 59 q 1336 0 1376 0 l 522 0 q 249 41 369 0 q 79 227 79 102 l 79 796 q 247 987 79 928 q 522 1026 358 1026 l 876 1026 q 1152 987 1044 1026 q 1319 796 1319 930 l 1319 383 l 1336 383 q 1406 353 1376 383 q 1436 283 1436 323 l 1436 99 m 1199 201 q 1140 254 1163 213 q 1121 333 1121 290 l 1121 734 q 1019 806 1121 783 q 876 824 950 824 l 514 824 q 282 734 282 824 l 282 283 q 513 201 282 201 l 1199 201 "},"M":{"x_min":87,"x_max":1905.359375,"ha":1992,"o":"m 1708 0 l 1708 682 l 1061 24 q 992 -3 1031 -3 q 921 26 949 -3 l 284 680 l 284 0 l 87 0 l 87 924 q 110 1001 87 968 q 175 1034 133 1034 q 255 995 217 1034 l 992 238 l 1737 995 q 1816 1034 1774 1034 q 1882 1001 1859 1034 q 1905 924 1905 968 l 1905 0 l 1708 0 "},"C":{"x_min":118,"x_max":1358.171875,"ha":1478,"o":"m 561 0 q 286 38 397 0 q 118 227 118 97 l 118 796 q 288 982 118 921 q 561 1026 406 1026 l 1358 1026 l 1358 824 l 561 824 q 321 715 321 824 l 321 290 q 561 201 321 201 l 1358 201 l 1358 0 l 561 0 "},"œ":{"x_min":79,"x_max":2362.96875,"ha":1252,"o":"m 1123 0 l 1123 1026 l 2362 1026 l 2362 824 l 1320 824 l 1320 704 l 2171 704 l 2171 502 l 1320 502 l 1320 201 l 2362 201 l 2362 0 l 1123 0 m 1319 227 q 1150 40 1319 99 q 875 0 1029 0 l 522 0 q 250 44 377 0 q 79 227 79 104 l 79 796 q 246 985 79 928 q 522 1026 362 1026 l 875 1026 q 1319 796 1319 1026 l 1319 227 m 1121 744 q 884 824 1121 824 l 513 824 q 282 744 282 824 l 282 279 q 513 201 282 201 l 884 201 q 1121 279 1121 201 l 1121 744 "},"!":{"x_min":88,"x_max":289,"ha":377,"o":"m 88 242 l 88 1026 l 285 1026 l 285 242 l 88 242 m 289 97 q 260 24 289 52 q 188 -4 231 -4 q 115 24 143 -4 q 88 97 88 52 q 115 171 88 143 q 188 200 143 200 q 260 171 231 200 q 289 97 289 143 "},"ç":{"x_min":114,"x_max":1354.171875,"ha":776,"o":"m 801 39 l 768 -15 q 852 -113 852 -33 q 840 -163 852 -141 q 809 -201 828 -186 q 763 -226 789 -217 q 708 -236 737 -236 q 646 -231 682 -236 l 646 -202 q 665 -204 656 -203 q 678 -205 673 -205 q 733 -183 708 -205 q 759 -130 759 -162 q 701 -80 759 -80 q 688 -81 693 -80 l 761 39 l 801 39 m 557 0 q 282 38 393 0 q 114 227 114 97 l 114 796 q 284 982 114 921 q 557 1026 402 1026 l 1354 1026 l 1354 824 l 557 824 q 317 715 317 824 l 317 290 q 557 201 317 201 l 1354 201 l 1354 0 l 557 0 "},"È":{"x_min":78,"x_max":1317.984375,"ha":1397,"o":"m 78 0 l 78 1026 l 1317 1026 l 1317 824 l 275 824 l 275 704 l 1126 704 l 1126 502 l 275 502 l 275 201 l 1317 201 l 1317 0 l 78 0 m 795 1024 l 404 1120 l 435 1189 l 826 1094 l 795 1024 "},"X":{"x_min":-35.390625,"x_max":1694.578125,"ha":1681,"o":"m 997 508 l 1682 -1 l 1354 -1 l 828 384 l 304 -1 l -25 -1 l 661 508 l -35 1026 l 299 1026 l 828 633 l 1357 1026 l 1694 1026 l 997 508 "},"ô":{"x_min":84,"x_max":1324,"ha":1408,"o":"m 776 1216 l 876 1074 l 761 1074 l 687 1164 l 616 1074 l 502 1074 l 600 1216 l 776 1216 m 1324 227 q 1155 40 1324 99 q 880 0 1034 0 l 527 0 q 255 44 382 0 q 84 227 84 104 l 84 796 q 251 985 84 928 q 527 1026 367 1026 l 880 1026 q 1324 796 1324 1026 l 1324 227 m 1126 744 q 889 824 1126 824 l 518 824 q 287 744 287 824 l 287 279 q 518 201 287 201 l 889 201 q 1126 279 1126 201 l 1126 744 "},"#":{"x_min":38,"x_max":634,"ha":672,"o":"m 241 279 l 393 279 l 437 494 l 284 494 l 241 279 m 458 280 l 585 280 l 585 193 l 443 193 l 402 0 l 338 0 l 376 193 l 225 193 l 186 0 l 120 0 l 158 193 l 38 193 l 38 280 l 176 280 l 217 493 l 88 493 l 88 580 l 236 580 l 270 768 l 338 768 l 303 580 l 452 580 l 491 768 l 556 768 l 519 580 l 634 580 l 634 493 l 501 493 l 458 280 "},"Ê":{"x_min":78,"x_max":1317.984375,"ha":1397,"o":"m 78 0 l 78 1026 l 1317 1026 l 1317 824 l 275 824 l 275 704 l 1126 704 l 1126 502 l 275 502 l 275 201 l 1317 201 l 1317 0 l 78 0 m 777 1216 l 876 1074 l 762 1074 l 687 1164 l 617 1074 l 502 1074 l 600 1216 l 777 1216 "},")":{"x_min":57.140625,"x_max":400,"ha":461,"o":"m 57 -290 q 158 -110 117 -198 q 227 63 200 -23 q 266 243 254 150 q 279 441 279 336 q 223 831 279 658 q 57 1173 168 1005 l 200 1173 q 351 818 302 998 q 400 441 400 638 q 351 62 400 243 q 200 -290 302 -117 l 57 -290 "},"Å":{"x_min":86,"x_max":1326,"ha":1413,"o":"m 1128 0 l 1128 320 l 283 320 l 283 0 l 86 0 l 86 701 q 237 949 86 859 q 531 1026 365 1026 l 868 1026 q 1165 946 1030 1026 q 1326 701 1326 853 l 1326 0 l 1128 0 m 1128 658 q 1033 784 1128 737 q 868 824 951 824 l 531 824 q 377 777 460 824 q 283 658 283 723 l 283 522 l 1128 522 l 1128 658 m 667 1220 q 608 1198 632 1220 q 585 1143 585 1177 q 608 1089 585 1110 q 667 1067 632 1067 q 723 1089 698 1067 q 748 1143 748 1110 q 723 1197 748 1175 q 667 1220 698 1220 m 667 1263 q 755 1229 717 1263 q 794 1143 794 1195 q 756 1057 794 1091 q 667 1023 719 1023 q 618 1032 641 1023 q 577 1057 594 1041 q 549 1096 559 1074 q 539 1143 539 1118 q 549 1190 539 1168 q 577 1229 559 1213 q 618 1253 594 1244 q 667 1263 641 1263 "},"ø":{"x_min":102,"x_max":1342,"ha":1409,"o":"m 1342 227 q 1309 131 1342 173 q 1217 59 1276 88 q 1077 15 1158 30 q 898 0 996 0 l 544 0 q 376 15 455 0 q 235 59 296 30 q 138 131 174 88 q 102 227 102 173 l 102 796 q 133 894 102 852 q 223 966 165 937 q 363 1010 281 995 q 544 1026 445 1026 l 898 1026 q 1342 796 1342 1026 l 1342 227 m 1144 744 q 1088 802 1144 783 l 475 202 q 505 201 490 201 q 536 201 520 201 l 907 201 q 1144 279 1144 201 l 1144 744 m 534 824 q 305 744 305 824 l 305 279 q 326 238 305 255 l 926 824 l 534 824 "},"â":{"x_min":86,"x_max":1326,"ha":1413,"o":"m 777 1216 l 876 1074 l 762 1074 l 687 1164 l 616 1074 l 502 1074 l 600 1216 l 777 1216 m 1128 0 l 1128 320 l 283 320 l 283 0 l 86 0 l 86 701 q 237 949 86 859 q 531 1026 365 1026 l 868 1026 q 1165 946 1030 1026 q 1326 701 1326 853 l 1326 0 l 1128 0 m 1128 658 q 1033 784 1128 737 q 868 824 951 824 l 531 824 q 377 777 460 824 q 283 658 283 723 l 283 522 l 1128 522 l 1128 658 "},"Ä":{"x_min":86,"x_max":1326,"ha":1413,"o":"m 1128 0 l 1128 320 l 283 320 l 283 0 l 86 0 l 86 701 q 237 949 86 859 q 531 1026 365 1026 l 868 1026 q 1165 946 1030 1026 q 1326 701 1326 853 l 1326 0 l 1128 0 m 1128 658 q 1033 784 1128 737 q 868 824 951 824 l 531 824 q 377 777 460 824 q 283 658 283 723 l 283 522 l 1128 522 l 1128 658 m 551 1197 q 600 1179 578 1197 q 622 1136 622 1162 q 600 1091 622 1108 q 551 1075 578 1075 q 501 1091 523 1075 q 479 1136 479 1108 q 500 1180 479 1163 q 551 1197 522 1197 m 783 1197 q 832 1179 810 1197 q 854 1136 854 1162 q 832 1091 854 1108 q 783 1075 810 1075 q 732 1091 754 1075 q 711 1136 711 1108 q 733 1179 711 1162 q 783 1197 755 1197 "},"¸":{"x_min":647,"x_max":853,"ha":1042,"o":"m 802 39 l 769 -15 q 853 -113 853 -33 q 841 -163 853 -141 q 810 -202 829 -186 q 764 -226 790 -217 q 709 -236 738 -236 q 647 -231 683 -236 l 647 -202 q 666 -204 657 -203 q 679 -205 674 -205 q 734 -183 709 -205 q 760 -130 760 -162 q 702 -81 760 -81 q 689 -82 694 -81 l 762 39 l 802 39 "},"a":{"x_min":86,"x_max":1326,"ha":1413,"o":"m 1128 0 l 1128 320 l 283 320 l 283 0 l 86 0 l 86 701 q 237 949 86 859 q 531 1026 365 1026 l 868 1026 q 1165 946 1030 1026 q 1326 701 1326 853 l 1326 0 l 1128 0 m 1128 658 q 1033 784 1128 737 q 868 824 951 824 l 531 824 q 377 777 460 824 q 283 658 283 723 l 283 522 l 1128 522 l 1128 658 "},"=":{"x_min":90,"x_max":690,"ha":780,"o":"m 90 538 l 90 740 l 690 740 l 690 538 l 90 538 m 90 276 l 90 477 l 690 477 l 690 276 l 90 276 "},"N":{"x_min":87,"x_max":1327,"ha":1415,"o":"m 1327 99 q 1303 24 1327 56 q 1239 -7 1280 -7 q 1167 20 1203 -7 l 284 719 l 284 0 l 87 0 l 87 925 q 110 1000 87 969 q 175 1032 133 1032 q 246 1003 210 1032 l 1129 305 l 1129 1026 l 1327 1026 l 1327 99 "},"˚":{"x_min":539,"x_max":793,"ha":1007,"o":"m 666 1220 q 608 1198 632 1220 q 585 1143 585 1176 q 608 1088 585 1110 q 666 1067 632 1067 q 722 1088 697 1067 q 747 1143 747 1110 q 722 1197 747 1175 q 666 1220 697 1220 m 666 1263 q 754 1229 716 1263 q 793 1143 793 1195 q 755 1056 793 1090 q 666 1023 718 1023 q 617 1032 640 1023 q 577 1057 594 1041 q 549 1096 559 1074 q 539 1143 539 1118 q 549 1190 539 1168 q 577 1229 559 1213 q 617 1253 594 1244 q 666 1263 640 1263 "},"ú":{"x_min":87,"x_max":1327,"ha":1394,"o":"m 1327 227 q 884 0 1327 0 l 530 0 q 259 45 387 0 q 87 227 87 109 l 87 1026 l 284 1026 l 284 281 q 530 201 284 201 l 884 201 q 1129 281 1129 201 l 1129 1026 l 1327 1026 l 1327 227 m 440 1094 l 831 1189 l 862 1120 l 472 1024 l 440 1094 "},"2":{"x_min":68,"x_max":1308,"ha":1380,"o":"m 68 0 l 68 491 q 240 666 68 610 q 511 704 359 704 l 864 704 q 907 704 888 704 q 943 706 928 704 q 1104 757 1104 706 l 1104 786 q 959 824 1104 824 l 861 824 l 205 824 l 205 1026 l 864 1026 q 1308 828 1308 1026 l 1308 723 q 864 502 1308 502 l 511 502 q 265 420 265 502 l 265 201 l 1308 201 l 1308 0 l 68 0 "},"ü":{"x_min":87,"x_max":1327,"ha":1394,"o":"m 551 1197 q 600 1179 578 1197 q 622 1136 622 1162 q 600 1091 622 1108 q 551 1075 578 1075 q 501 1091 523 1075 q 479 1136 479 1108 q 500 1180 479 1163 q 551 1197 522 1197 m 782 1197 q 831 1179 809 1197 q 853 1136 853 1162 q 831 1091 853 1108 q 782 1075 809 1075 q 731 1091 753 1075 q 710 1136 710 1108 q 732 1179 710 1162 q 782 1197 754 1197 m 1327 227 q 884 0 1327 0 l 530 0 q 259 45 387 0 q 87 227 87 109 l 87 1026 l 284 1026 l 284 281 q 530 201 284 201 l 884 201 q 1129 281 1129 201 l 1129 1026 l 1327 1026 l 1327 227 "},"Z":{"x_min":11,"x_max":1313,"ha":1324,"o":"m 103 0 q 11 81 11 0 q 61 194 11 156 l 905 824 l 34 824 l 34 1026 l 1186 1026 q 1313 944 1313 1026 q 1242 830 1313 881 l 404 201 l 1274 201 l 1274 0 l 103 0 "},"u":{"x_min":87,"x_max":1327,"ha":1394,"o":"m 1327 227 q 884 0 1327 0 l 530 0 q 259 45 387 0 q 87 227 87 109 l 87 1026 l 284 1026 l 284 281 q 530 201 284 201 l 884 201 q 1129 281 1129 201 l 1129 1026 l 1327 1026 l 1327 227 "},"˜":{"x_min":490,"x_max":904,"ha":1078,"o":"m 490 1069 q 610 1207 490 1207 q 725 1169 656 1207 q 822 1133 796 1133 q 883 1207 868 1133 l 904 1207 q 840 1083 904 1119 q 780 1068 810 1068 q 662 1105 733 1068 q 570 1143 593 1143 q 525 1119 540 1143 q 509 1069 518 1108 l 490 1069 "},"Ó":{"x_min":84,"x_max":1324,"ha":1408,"o":"m 1324 227 q 1155 40 1324 99 q 880 0 1034 0 l 527 0 q 255 44 382 0 q 84 227 84 104 l 84 796 q 251 985 84 928 q 527 1026 367 1026 l 880 1026 q 1324 796 1324 1026 l 1324 227 m 1126 744 q 889 824 1126 824 l 518 824 q 287 744 287 824 l 287 279 q 518 201 287 201 l 889 201 q 1126 279 1126 201 l 1126 744 m 440 1094 l 831 1189 l 862 1120 l 472 1024 l 440 1094 "},"k":{"x_min":80,"x_max":1473.765625,"ha":1385,"o":"m 1080 0 l 277 459 l 277 0 l 80 0 l 80 1026 l 277 1026 l 277 665 l 989 1026 l 1426 1026 l 500 552 l 1473 0 l 1080 0 "},"Ù":{"x_min":87,"x_max":1327,"ha":1394,"o":"m 1327 227 q 884 0 1327 0 l 530 0 q 259 45 387 0 q 87 227 87 109 l 87 1026 l 284 1026 l 284 281 q 530 201 284 201 l 884 201 q 1129 281 1129 201 l 1129 1026 l 1327 1026 l 1327 227 m 794 1024 l 404 1120 l 435 1189 l 826 1094 l 794 1024 "},"Ÿ":{"x_min":35,"x_max":1275,"ha":1310,"o":"m 551 1197 q 600 1179 578 1197 q 622 1136 622 1162 q 600 1091 622 1108 q 551 1075 578 1075 q 501 1091 523 1075 q 479 1136 479 1108 q 500 1180 479 1163 q 551 1197 522 1197 m 782 1197 q 831 1179 809 1197 q 853 1136 853 1162 q 831 1091 853 1108 q 782 1075 809 1075 q 731 1091 753 1075 q 710 1136 710 1108 q 732 1179 710 1162 q 782 1197 754 1197 m 1275 227 q 1104 43 1275 104 q 831 0 986 0 l 235 0 l 235 201 l 831 201 q 1078 285 1078 201 l 1078 320 l 479 320 q 197 366 311 320 q 35 573 35 431 l 35 1026 l 232 1026 l 232 613 q 478 522 232 522 l 1078 522 l 1078 1026 l 1275 1026 l 1275 227 "},"€":{"x_min":118,"x_max":1400.359375,"ha":1478,"o":"m 561 0 q 233 60 349 0 q 118 227 118 120 l 118 796 q 151 890 118 848 q 243 963 184 932 q 384 1010 303 994 q 561 1026 465 1026 l 1400 1026 l 1246 824 l 561 824 q 321 715 321 824 l 321 672 l 1129 672 l 1026 537 l 321 537 l 321 497 l 996 497 l 892 362 l 321 362 l 321 289 q 561 201 321 201 l 1358 201 l 1358 0 l 561 0 "},"ß":{"x_min":72,"x_max":2571,"ha":2591,"o":"m 1275 227 q 1106 40 1275 98 q 831 0 988 0 l 72 0 l 72 201 l 831 201 q 1078 279 1078 201 l 1078 426 q 831 502 1078 502 l 477 502 q 72 694 72 502 l 72 823 q 477 1026 72 1026 l 1232 1026 l 1232 824 l 477 824 q 360 820 384 824 q 273 766 273 810 l 273 749 q 391 702 273 702 q 407 702 398 702 q 433 704 418 702 l 477 704 l 831 704 q 1107 667 997 704 q 1275 477 1275 610 l 1275 227 m 2571 227 q 2402 40 2571 98 q 2127 0 2283 0 l 1367 0 l 1367 201 l 2127 201 q 2373 279 2373 201 l 2373 426 q 2127 502 2373 502 l 1773 502 q 1368 694 1368 502 l 1368 823 q 1773 1026 1368 1026 l 2528 1026 l 2528 824 l 1773 824 q 1656 820 1680 824 q 1569 766 1569 810 l 1569 749 q 1687 702 1569 702 q 1703 702 1694 702 q 1729 704 1714 702 l 1773 704 l 2127 704 q 2403 667 2293 704 q 2571 477 2571 610 l 2571 227 "},"é":{"x_min":78,"x_max":1317.984375,"ha":1397,"o":"m 78 0 l 78 1026 l 1317 1026 l 1317 824 l 275 824 l 275 704 l 1126 704 l 1126 502 l 275 502 l 275 201 l 1317 201 l 1317 0 l 78 0 m 441 1094 l 832 1189 l 863 1120 l 472 1024 l 441 1094 "},"s":{"x_min":72,"x_max":1275.359375,"ha":1296,"o":"m 1275 227 q 1106 40 1275 98 q 831 0 988 0 l 72 0 l 72 201 l 831 201 q 1078 279 1078 201 l 1078 426 q 831 502 1078 502 l 477 502 q 72 694 72 502 l 72 823 q 477 1026 72 1026 l 1232 1026 l 1232 824 l 477 824 q 360 820 384 824 q 273 766 273 810 l 273 749 q 391 702 273 702 q 407 702 398 702 q 433 704 418 702 l 477 704 l 831 704 q 1107 667 997 704 q 1275 477 1275 610 l 1275 227 "},"B":{"x_min":86,"x_max":1326,"ha":1410,"o":"m 1326 227 q 1151 41 1326 102 q 875 0 1029 0 l 86 0 l 86 1027 l 882 1027 q 1155 985 1038 1027 q 1326 798 1326 924 l 1326 649 q 1215 515 1326 545 q 1294 471 1263 506 q 1326 387 1326 436 l 1326 227 m 1123 749 q 1023 810 1123 789 q 882 826 951 826 l 283 826 l 283 618 l 1031 618 q 1087 629 1059 618 q 1123 666 1123 641 l 1123 749 m 1123 355 q 952 416 1123 416 l 283 416 l 283 201 l 875 201 q 1123 276 1123 201 l 1123 355 "},"…":{"x_min":675,"x_max":2774,"ha":3448,"o":"m 876 97 q 847 24 876 52 q 775 -4 818 -4 q 702 24 730 -4 q 675 97 675 52 q 702 171 675 143 q 775 200 730 200 q 847 171 818 200 q 876 97 876 143 m 1825 97 q 1796 24 1825 52 q 1724 -4 1767 -4 q 1651 24 1679 -4 q 1624 97 1624 52 q 1651 171 1624 143 q 1724 200 1679 200 q 1796 171 1767 200 q 1825 97 1825 143 m 2774 97 q 2745 24 2774 52 q 2673 -4 2716 -4 q 2600 24 2628 -4 q 2573 97 2573 52 q 2600 171 2573 143 q 2673 200 2628 200 q 2745 171 2716 200 q 2774 97 2774 143 "},"?":{"x_min":41,"x_max":1300,"ha":1341,"o":"m 244 97 q 215 24 244 52 q 143 -4 186 -4 q 69 24 98 -4 q 41 97 41 52 q 69 171 41 143 q 143 200 98 200 q 215 171 186 200 q 244 97 244 143 m 1075 763 q 841 824 1075 824 l 45 824 l 45 1026 l 841 1026 q 1263 869 1152 1026 q 1300 760 1300 816 q 1264 655 1300 706 q 841 502 1155 502 l 242 502 l 242 241 l 45 241 l 45 602 q 74 674 45 644 q 144 704 103 704 l 841 704 q 1075 763 1075 704 "},"H":{"x_min":94,"x_max":1335.359375,"ha":1386,"o":"m 1138 0 l 1138 502 l 291 502 l 291 0 l 94 0 l 94 1026 l 291 1026 l 291 704 l 1138 704 l 1138 1026 l 1335 1026 l 1335 0 l 1138 0 "},"î":{"x_min":26.046875,"x_max":400.359375,"ha":430,"o":"m 301 1216 l 400 1074 l 286 1074 l 211 1164 l 140 1074 l 26 1074 l 124 1216 l 301 1216 m 105 0 l 105 1026 l 302 1026 l 302 0 l 105 0 "},"c":{"x_min":118,"x_max":1358.171875,"ha":1478,"o":"m 561 0 q 286 38 397 0 q 118 227 118 97 l 118 796 q 288 982 118 921 q 561 1026 406 1026 l 1358 1026 l 1358 824 l 561 824 q 321 715 321 824 l 321 290 q 561 201 321 201 l 1358 201 l 1358 0 l 561 0 "},"•":{"x_min":110.25,"x_max":1192.328125,"ha":1250,"o":"m 110 872 l 1192 872 l 651 -83 l 110 872 "},"(":{"x_min":60,"x_max":403.5,"ha":465,"o":"m 259 -290 q 60 441 60 52 q 259 1173 60 828 l 402 1173 q 238 835 294 1020 q 183 441 183 651 q 403 -290 183 63 l 259 -290 "},"U":{"x_min":87,"x_max":1327,"ha":1394,"o":"m 1327 227 q 884 0 1327 0 l 530 0 q 259 45 387 0 q 87 227 87 109 l 87 1026 l 284 1026 l 284 281 q 530 201 284 201 l 884 201 q 1129 281 1129 201 l 1129 1026 l 1327 1026 l 1327 227 "},"Ñ":{"x_min":87,"x_max":1327,"ha":1415,"o":"m 1327 99 q 1303 24 1327 56 q 1239 -7 1280 -7 q 1167 20 1203 -7 l 284 719 l 284 0 l 87 0 l 87 925 q 110 1000 87 969 q 175 1032 133 1032 q 246 1003 210 1032 l 1129 305 l 1129 1026 l 1327 1026 l 1327 99 m 490 1068 q 610 1206 490 1206 q 725 1168 656 1206 q 822 1133 796 1133 q 883 1206 868 1133 l 904 1206 q 840 1082 904 1118 q 780 1068 810 1068 q 662 1104 733 1068 q 570 1142 593 1142 q 525 1118 540 1142 q 509 1068 518 1107 l 490 1068 "},"F":{"x_min":76,"x_max":1315.984375,"ha":1370,"o":"m 273 824 l 273 704 l 1072 704 l 1072 502 l 273 502 l 273 0 l 76 0 l 76 1026 l 1315 1026 l 1315 824 l 273 824 "},":":{"x_min":87,"x_max":288,"ha":375,"o":"m 288 552 q 260 479 288 507 q 187 451 232 451 q 115 479 144 451 q 87 552 87 507 q 115 626 87 598 q 187 655 144 655 q 260 626 232 655 q 288 552 288 598 m 288 97 q 260 24 288 52 q 187 -4 232 -4 q 115 24 144 -4 q 87 97 87 52 q 115 171 87 143 q 187 200 144 200 q 260 171 232 200 q 288 97 288 143 "},"Û":{"x_min":87,"x_max":1327,"ha":1394,"o":"m 1327 227 q 884 0 1327 0 l 530 0 q 259 45 387 0 q 87 227 87 109 l 87 1026 l 284 1026 l 284 281 q 530 201 284 201 l 884 201 q 1129 281 1129 201 l 1129 1026 l 1327 1026 l 1327 227 m 777 1216 l 876 1074 l 762 1074 l 687 1164 l 616 1074 l 502 1074 l 600 1216 l 777 1216 "},"*":{"x_min":4.078125,"x_max":613.859375,"ha":617,"o":"m 396 472 l 313 265 l 223 478 l 4 478 l 166 637 l 114 854 l 304 743 l 491 861 l 446 641 l 613 497 l 396 472 "},"V":{"x_min":19.0625,"x_max":1467.28125,"ha":1463,"o":"m 834 72 q 736 -8 779 -8 q 637 72 690 -8 l 19 1026 l 257 1026 l 740 282 l 1229 1026 l 1467 1026 l 834 72 "},"å":{"x_min":86,"x_max":1326,"ha":1413,"o":"m 667 1220 q 608 1198 632 1220 q 585 1143 585 1177 q 608 1089 585 1110 q 667 1067 632 1067 q 723 1089 698 1067 q 748 1143 748 1110 q 723 1197 748 1175 q 667 1220 698 1220 m 667 1263 q 755 1229 717 1263 q 794 1143 794 1195 q 756 1057 794 1091 q 667 1023 719 1023 q 618 1032 641 1023 q 577 1057 594 1041 q 549 1096 559 1074 q 539 1143 539 1118 q 549 1190 539 1168 q 577 1229 559 1213 q 618 1253 594 1244 q 667 1263 641 1263 m 1128 0 l 1128 320 l 283 320 l 283 0 l 86 0 l 86 701 q 237 949 86 859 q 531 1026 365 1026 l 868 1026 q 1165 946 1030 1026 q 1326 701 1326 853 l 1326 0 l 1128 0 m 1128 658 q 1033 784 1128 737 q 868 824 951 824 l 531 824 q 377 777 460 824 q 283 658 283 723 l 283 522 l 1128 522 l 1128 658 "},"0":{"x_min":84,"x_max":1324,"ha":1408,"o":"m 1324 227 q 1155 40 1324 99 q 880 0 1034 0 l 527 0 q 255 44 382 0 q 84 227 84 104 l 84 796 q 251 985 84 928 q 527 1026 367 1026 l 880 1026 q 1324 796 1324 1026 l 1324 227 m 1126 744 q 889 824 1126 824 l 518 824 q 287 744 287 824 l 287 279 q 518 201 287 201 l 889 201 q 1126 279 1126 201 l 1126 744 "},"”":{"x_min":29.9375,"x_max":556.6875,"ha":587,"o":"m 29 744 l 100 1079 l 298 1079 l 227 744 l 29 744 m 288 744 l 359 1079 l 556 1079 l 485 744 l 288 744 "},"@":{"x_min":76,"x_max":1896,"ha":1971,"o":"m 1896 440 q 1720 273 1896 324 q 1452 238 1606 238 l 954 238 q 748 283 842 238 q 631 440 631 340 l 631 716 l 829 716 l 829 467 q 951 440 829 440 l 1234 440 l 1234 626 l 1431 626 l 1431 438 q 1481 438 1458 438 q 1524 438 1505 438 q 1628 445 1593 438 q 1695 509 1695 459 l 1695 716 q 1452 824 1695 824 l 519 824 q 279 716 279 824 l 279 279 q 520 201 279 201 l 1860 201 l 1860 0 l 519 0 q 247 44 374 0 q 76 226 76 104 l 76 798 q 519 1026 76 1026 l 1452 1026 q 1727 984 1610 1026 q 1896 796 1896 926 l 1896 440 "},"ö":{"x_min":84,"x_max":1324,"ha":1408,"o":"m 551 1197 q 600 1179 578 1197 q 622 1136 622 1162 q 600 1091 622 1108 q 551 1075 578 1075 q 501 1091 523 1075 q 479 1136 479 1108 q 500 1180 479 1163 q 551 1197 522 1197 m 782 1197 q 831 1179 809 1197 q 853 1136 853 1162 q 831 1091 853 1108 q 782 1075 809 1075 q 731 1091 753 1075 q 710 1136 710 1108 q 732 1179 710 1162 q 782 1197 754 1197 m 1324 227 q 1155 40 1324 99 q 880 0 1034 0 l 527 0 q 255 44 382 0 q 84 227 84 104 l 84 796 q 251 985 84 928 q 527 1026 367 1026 l 880 1026 q 1324 796 1324 1026 l 1324 227 m 1126 744 q 889 824 1126 824 l 518 824 q 287 744 287 824 l 287 279 q 518 201 287 201 l 889 201 q 1126 279 1126 201 l 1126 744 "},"i":{"x_min":105,"x_max":302.359375,"ha":430,"o":"m 105 0 l 105 1026 l 302 1026 l 302 0 l 105 0 "},"Õ":{"x_min":84,"x_max":1324,"ha":1408,"o":"m 1324 227 q 1155 40 1324 99 q 880 0 1034 0 l 527 0 q 255 44 382 0 q 84 227 84 104 l 84 796 q 251 985 84 928 q 527 1026 367 1026 l 880 1026 q 1324 796 1324 1026 l 1324 227 m 1126 744 q 889 824 1126 824 l 518 824 q 287 744 287 824 l 287 279 q 518 201 287 201 l 889 201 q 1126 279 1126 201 l 1126 744 m 489 1069 q 609 1207 489 1207 q 724 1169 655 1207 q 821 1132 795 1132 q 882 1207 867 1132 l 903 1207 q 839 1083 903 1119 q 779 1068 809 1068 q 661 1105 732 1068 q 569 1143 592 1143 q 524 1119 539 1143 q 508 1069 517 1108 l 489 1069 "},"m":{"x_min":87,"x_max":1905.359375,"ha":1992,"o":"m 1708 0 l 1708 682 l 1061 24 q 992 -3 1031 -3 q 921 26 949 -3 l 284 680 l 284 0 l 87 0 l 87 924 q 110 1001 87 968 q 175 1034 133 1034 q 255 995 217 1034 l 992 238 l 1737 995 q 1816 1034 1774 1034 q 1882 1001 1859 1034 q 1905 924 1905 968 l 1905 0 l 1708 0 "},"8":{"x_min":84,"x_max":1324,"ha":1408,"o":"m 1324 227 q 881 0 1324 0 l 527 0 q 256 45 383 0 q 84 227 84 109 l 84 436 q 142 512 84 465 q 84 590 84 562 l 84 797 q 527 1026 84 1026 l 881 1026 q 1324 797 1324 1026 l 1324 590 q 1268 511 1324 563 q 1324 436 1324 461 l 1324 227 m 1126 765 q 891 824 1126 824 l 516 824 q 281 765 281 824 l 281 630 q 308 618 281 618 l 1098 618 q 1126 641 1126 618 l 1126 765 m 1126 369 q 1093 405 1126 390 q 1040 416 1065 416 l 367 416 q 315 405 345 416 q 281 369 281 391 l 281 258 q 492 200 281 200 l 881 200 q 1126 257 1126 200 l 1126 369 "},"R":{"x_min":79,"x_max":1411.546875,"ha":1378,"o":"m 1029 0 l 394 349 l 276 349 l 276 0 l 79 0 l 79 1026 l 876 1026 q 1157 996 1064 1026 q 1319 796 1319 944 l 1319 548 q 1210 392 1319 449 q 1012 347 1120 347 l 767 347 l 1411 0 l 1029 0 m 1121 758 q 876 824 1121 824 l 276 824 l 276 547 l 1012 547 q 1079 560 1044 547 q 1121 605 1121 577 l 1121 758 "},"á":{"x_min":86,"x_max":1326,"ha":1413,"o":"m 1128 658 q 1033 784 1128 737 q 868 824 951 824 l 531 824 q 377 777 460 824 q 283 658 283 723 l 283 522 l 1128 522 l 1128 658 m 1128 0 l 1128 320 l 283 320 l 283 0 l 86 0 l 86 701 q 237 949 86 859 q 531 1026 365 1026 l 868 1026 q 1165 946 1030 1026 q 1326 701 1326 853 l 1326 0 l 1128 0 m 441 1094 l 831 1189 l 863 1120 l 472 1024 l 441 1094 "},"o":{"x_min":84,"x_max":1324,"ha":1408,"o":"m 1324 227 q 1155 40 1324 99 q 880 0 1034 0 l 527 0 q 255 44 382 0 q 84 227 84 104 l 84 796 q 251 985 84 928 q 527 1026 367 1026 l 880 1026 q 1324 796 1324 1026 l 1324 227 m 1126 744 q 889 824 1126 824 l 518 824 q 287 744 287 824 l 287 279 q 518 201 287 201 l 889 201 q 1126 279 1126 201 l 1126 744 "},"5":{"x_min":69,"x_max":1309,"ha":1380,"o":"m 1309 262 q 1145 55 1309 127 q 866 0 1020 0 l 69 0 l 69 201 l 866 201 q 1009 215 949 201 q 1111 291 1111 237 l 1111 502 l 512 502 q 244 536 358 502 q 69 701 69 585 l 69 1026 l 1309 1026 l 1309 824 l 266 824 l 266 781 q 512 704 266 704 l 1309 704 l 1309 262 "},"õ":{"x_min":84,"x_max":1324,"ha":1408,"o":"m 489 1069 q 609 1207 489 1207 q 724 1169 655 1207 q 821 1132 795 1132 q 882 1207 867 1132 l 903 1207 q 839 1083 903 1119 q 779 1068 809 1068 q 661 1105 732 1068 q 569 1143 592 1143 q 524 1119 539 1143 q 508 1069 517 1108 l 489 1069 m 1324 227 q 1155 40 1324 99 q 880 0 1034 0 l 527 0 q 255 44 382 0 q 84 227 84 104 l 84 796 q 251 985 84 928 q 527 1026 367 1026 l 880 1026 q 1324 796 1324 1026 l 1324 227 m 1126 744 q 889 824 1126 824 l 518 824 q 287 744 287 824 l 287 279 q 518 201 287 201 l 889 201 q 1126 279 1126 201 l 1126 744 "},"7":{"x_min":26,"x_max":1305,"ha":1331,"o":"m 42 -1 l 917 824 l 26 824 l 26 1026 l 1198 1026 q 1305 938 1305 1026 q 1260 845 1305 887 l 343 -1 l 42 -1 "},"K":{"x_min":80,"x_max":1473.765625,"ha":1385,"o":"m 1080 0 l 277 459 l 277 0 l 80 0 l 80 1026 l 277 1026 l 277 665 l 989 1026 l 1426 1026 l 500 552 l 1473 0 l 1080 0 "},",":{"x_min":61,"x_max":258.359375,"ha":321,"o":"m 61 -89 l 61 246 l 258 246 l 258 -89 l 61 -89 "},"d":{"x_min":86,"x_max":1326,"ha":1412,"o":"m 1326 227 q 1153 47 1326 111 q 882 0 1023 0 l 86 0 l 86 1026 l 882 1026 q 1157 985 1041 1026 q 1326 796 1326 927 l 1326 227 m 1128 749 q 893 824 1128 824 l 283 824 l 283 201 l 882 201 q 1027 226 951 201 q 1128 312 1128 258 l 1128 749 "},"¨":{"x_min":479,"x_max":853,"ha":1054,"o":"m 551 1197 q 600 1179 578 1197 q 622 1136 622 1162 q 600 1091 622 1108 q 551 1075 578 1075 q 501 1091 523 1075 q 479 1136 479 1108 q 500 1180 479 1163 q 551 1197 522 1197 m 782 1197 q 831 1179 809 1197 q 853 1136 853 1162 q 831 1091 853 1108 q 782 1075 809 1075 q 731 1091 753 1075 q 710 1136 710 1108 q 732 1179 710 1162 q 782 1197 754 1197 "},"E":{"x_min":78,"x_max":1317.984375,"ha":1397,"o":"m 78 0 l 78 1026 l 1317 1026 l 1317 824 l 275 824 l 275 704 l 1126 704 l 1126 502 l 275 502 l 275 201 l 1317 201 l 1317 0 l 78 0 "},"Y":{"x_min":35,"x_max":1275,"ha":1310,"o":"m 1275 227 q 1104 43 1275 104 q 831 0 986 0 l 235 0 l 235 201 l 831 201 q 1078 285 1078 201 l 1078 320 l 479 320 q 197 366 311 320 q 35 573 35 431 l 35 1026 l 232 1026 l 232 613 q 478 522 232 522 l 1078 522 l 1078 1026 l 1275 1026 l 1275 227 "},"Ô":{"x_min":84,"x_max":1324,"ha":1408,"o":"m 1324 227 q 1155 40 1324 99 q 880 0 1034 0 l 527 0 q 255 44 382 0 q 84 227 84 104 l 84 796 q 251 985 84 928 q 527 1026 367 1026 l 880 1026 q 1324 796 1324 1026 l 1324 227 m 1126 744 q 889 824 1126 824 l 518 824 q 287 744 287 824 l 287 279 q 518 201 287 201 l 889 201 q 1126 279 1126 201 l 1126 744 m 776 1216 l 876 1074 l 761 1074 l 687 1164 l 616 1074 l 502 1074 l 600 1216 l 776 1216 "},"\"":{"x_min":29,"x_max":479.359375,"ha":554,"o":"m 282 744 l 282 1079 l 479 1079 l 479 744 l 282 744 m 29 744 l 29 1079 l 226 1079 l 226 744 l 29 744 "},"‹":{"x_min":56,"x_max":268,"ha":313,"o":"m 129 419 l 268 352 l 268 269 l 56 376 l 56 458 l 268 570 l 268 484 l 129 419 "},"ê":{"x_min":78,"x_max":1317.984375,"ha":1397,"o":"m 777 1216 l 876 1074 l 762 1074 l 687 1164 l 617 1074 l 502 1074 l 600 1216 l 777 1216 m 78 0 l 78 1026 l 1317 1026 l 1317 824 l 275 824 l 275 704 l 1126 704 l 1126 502 l 275 502 l 275 201 l 1317 201 l 1317 0 l 78 0 "},"Ï":{"x_min":19,"x_max":393,"ha":397,"o":"m 104 0 l 104 1026 l 302 1026 l 302 0 l 104 0 m 91 1197 q 140 1179 118 1197 q 162 1136 162 1162 q 140 1091 162 1108 q 91 1075 118 1075 q 41 1091 63 1075 q 19 1136 19 1108 q 40 1180 19 1163 q 91 1197 62 1197 m 322 1197 q 371 1179 349 1197 q 393 1136 393 1162 q 371 1091 393 1108 q 322 1075 349 1075 q 271 1091 293 1075 q 250 1136 250 1108 q 272 1179 250 1162 q 322 1197 294 1197 "},"„":{"x_min":29.9375,"x_max":556.6875,"ha":587,"o":"m 29 -126 l 100 209 l 298 209 l 227 -126 l 29 -126 m 288 -126 l 359 209 l 556 209 l 485 -126 l 288 -126 "},"Â":{"x_min":86,"x_max":1326,"ha":1413,"o":"m 1128 0 l 1128 320 l 283 320 l 283 0 l 86 0 l 86 701 q 237 949 86 859 q 531 1026 365 1026 l 868 1026 q 1165 946 1030 1026 q 1326 701 1326 853 l 1326 0 l 1128 0 m 1128 658 q 1033 784 1128 737 q 868 824 951 824 l 531 824 q 377 777 460 824 q 283 658 283 723 l 283 522 l 1128 522 l 1128 658 m 777 1216 l 876 1074 l 762 1074 l 687 1164 l 616 1074 l 502 1074 l 600 1216 l 777 1216 "},"´":{"x_min":441,"x_max":862.953125,"ha":1019,"o":"m 441 1094 l 831 1189 l 862 1120 l 472 1024 l 441 1094 "},"Í":{"x_min":62.796875,"x_max":484.75,"ha":398,"o":"m 105 0 l 105 1026 l 302 1026 l 302 0 l 105 0 m 62 1094 l 453 1189 l 484 1120 l 94 1024 l 62 1094 "},"ì":{"x_min":-85.5625,"x_max":336.375,"ha":430,"o":"m 305 1024 l -85 1120 l -54 1189 l 336 1094 l 305 1024 m 105 0 l 105 1026 l 302 1026 l 302 0 l 105 0 "},"|":{"x_min":108,"x_max":303,"ha":431,"o":"m 108 -315 l 108 1159 l 303 1159 l 303 -315 l 108 -315 "},"Ú":{"x_min":87,"x_max":1327,"ha":1394,"o":"m 1327 227 q 884 0 1327 0 l 530 0 q 259 45 387 0 q 87 227 87 109 l 87 1026 l 284 1026 l 284 281 q 530 201 284 201 l 884 201 q 1129 281 1129 201 l 1129 1026 l 1327 1026 l 1327 227 m 440 1094 l 831 1189 l 862 1120 l 472 1024 l 440 1094 "},"Ý":{"x_min":35,"x_max":1275,"ha":820,"o":"m 1275 227 q 1104 43 1275 104 q 831 0 986 0 l 235 0 l 235 201 l 831 201 q 1078 285 1078 201 l 1078 320 l 479 320 q 197 366 311 320 q 35 573 35 431 l 35 1026 l 232 1026 l 232 613 q 478 522 232 522 l 1078 522 l 1078 1026 l 1275 1026 l 1275 227 m 441 1094 l 831 1189 l 862 1120 l 472 1024 l 441 1094 "},"b":{"x_min":86,"x_max":1326,"ha":1410,"o":"m 1326 227 q 1151 41 1326 102 q 875 0 1029 0 l 86 0 l 86 1027 l 882 1027 q 1155 985 1038 1027 q 1326 798 1326 924 l 1326 649 q 1215 515 1326 545 q 1294 471 1263 506 q 1326 387 1326 436 l 1326 227 m 1123 749 q 1023 810 1123 789 q 882 826 951 826 l 283 826 l 283 618 l 1031 618 q 1087 629 1059 618 q 1123 666 1123 641 l 1123 749 m 1123 355 q 952 416 1123 416 l 283 416 l 283 201 l 875 201 q 1123 276 1123 201 l 1123 355 "},"q":{"x_min":79,"x_max":1436.046875,"ha":1450,"o":"m 1436 99 q 1406 29 1436 59 q 1336 0 1376 0 l 522 0 q 249 41 369 0 q 79 227 79 102 l 79 796 q 247 987 79 928 q 522 1026 358 1026 l 876 1026 q 1152 987 1044 1026 q 1319 796 1319 930 l 1319 383 l 1336 383 q 1406 353 1376 383 q 1436 283 1436 323 l 1436 99 m 1199 201 q 1140 254 1163 213 q 1121 333 1121 290 l 1121 734 q 1019 806 1121 783 q 876 824 950 824 l 514 824 q 282 734 282 824 l 282 283 q 513 201 282 201 l 1199 201 "},"Ö":{"x_min":84,"x_max":1324,"ha":1408,"o":"m 1324 227 q 1155 40 1324 99 q 880 0 1034 0 l 527 0 q 255 44 382 0 q 84 227 84 104 l 84 796 q 251 985 84 928 q 527 1026 367 1026 l 880 1026 q 1324 796 1324 1026 l 1324 227 m 1126 744 q 889 824 1126 824 l 518 824 q 287 744 287 824 l 287 279 q 518 201 287 201 l 889 201 q 1126 279 1126 201 l 1126 744 m 551 1197 q 600 1179 578 1197 q 622 1136 622 1162 q 600 1091 622 1108 q 551 1075 578 1075 q 501 1091 523 1075 q 479 1136 479 1108 q 500 1180 479 1163 q 551 1197 522 1197 m 782 1197 q 831 1179 809 1197 q 853 1136 853 1162 q 831 1091 853 1108 q 782 1075 809 1075 q 731 1091 753 1075 q 710 1136 710 1108 q 732 1179 710 1162 q 782 1197 754 1197 "},"z":{"x_min":11,"x_max":1313,"ha":1324,"o":"m 103 0 q 11 81 11 0 q 61 194 11 156 l 905 824 l 34 824 l 34 1026 l 1186 1026 q 1313 944 1313 1026 q 1242 830 1313 881 l 404 201 l 1274 201 l 1274 0 l 103 0 "},"™":{"x_min":59,"x_max":686,"ha":764,"o":"m 236 672 l 236 362 l 156 362 l 156 672 l 59 672 l 59 747 l 330 747 l 330 672 l 236 672 m 610 574 l 528 361 l 439 583 l 439 364 l 364 364 l 364 749 l 455 749 l 527 549 l 597 749 l 686 749 l 686 364 l 610 364 l 610 574 "},"ã":{"x_min":86,"x_max":1326,"ha":1413,"o":"m 490 1069 q 610 1207 490 1207 q 725 1169 656 1207 q 822 1132 796 1132 q 883 1207 868 1132 l 904 1207 q 840 1083 904 1119 q 780 1068 810 1068 q 662 1105 733 1068 q 570 1143 593 1143 q 525 1119 540 1143 q 509 1069 518 1108 l 490 1069 m 1128 0 l 1128 320 l 283 320 l 283 0 l 86 0 l 86 701 q 237 949 86 859 q 531 1026 365 1026 l 868 1026 q 1165 946 1030 1026 q 1326 701 1326 853 l 1326 0 l 1128 0 m 1128 658 q 1033 784 1128 737 q 868 824 951 824 l 531 824 q 377 777 460 824 q 283 658 283 723 l 283 522 l 1128 522 l 1128 658 "},"æ":{"x_min":67,"x_max":2346.890625,"ha":1250,"o":"m 1107 0 l 1107 1026 l 2346 1026 l 2346 824 l 1304 824 l 1304 704 l 2154 704 l 2154 502 l 1304 502 l 1304 201 l 2346 201 l 2346 0 l 1107 0 m 1109 0 l 1109 320 l 264 320 l 264 0 l 67 0 l 67 701 q 218 949 67 859 q 512 1026 346 1026 l 849 1026 q 1146 946 1011 1026 q 1307 701 1307 853 l 1307 0 l 1109 0 m 1109 658 q 1014 784 1109 737 q 849 824 932 824 l 512 824 q 358 777 441 824 q 264 658 264 723 l 264 522 l 1109 522 l 1109 658 "},"®":{"x_min":64,"x_max":679,"ha":735,"o":"m 367 727 q 264 706 310 727 q 187 652 218 685 q 138 575 155 618 q 121 489 121 532 q 138 402 121 445 q 187 325 155 359 q 264 271 218 292 q 367 251 310 251 q 468 269 420 251 q 552 319 517 287 q 608 396 587 352 q 630 489 630 439 q 610 575 630 532 q 555 652 590 618 q 472 706 521 685 q 367 727 424 727 m 368 197 q 246 221 302 197 q 149 285 190 245 q 86 378 108 326 q 64 489 64 431 q 86 602 64 549 q 149 696 108 656 q 246 760 190 736 q 368 784 302 784 q 492 761 435 784 q 591 698 549 738 q 655 605 632 659 q 679 489 679 552 q 655 378 679 431 q 589 285 631 326 q 491 221 548 245 q 368 197 434 197 m 335 580 l 335 508 l 386 508 q 419 542 419 508 q 386 580 419 580 l 335 580 m 367 443 l 335 443 l 335 325 l 274 325 l 274 644 l 385 644 q 455 617 428 644 q 482 542 482 591 q 469 490 482 510 q 429 452 457 470 l 486 325 l 420 325 l 367 443 "},"É":{"x_min":78,"x_max":1317.984375,"ha":1397,"o":"m 78 0 l 78 1026 l 1317 1026 l 1317 824 l 275 824 l 275 704 l 1126 704 l 1126 502 l 275 502 l 275 201 l 1317 201 l 1317 0 l 78 0 m 441 1094 l 832 1189 l 863 1120 l 472 1024 l 441 1094 "},"~":{"x_min":21.78125,"x_max":166.0625,"ha":180,"o":"m 133 898 l 88 898 l 72 917 l 58 898 l 21 898 l 53 931 l 92 931 l 111 911 l 129 931 l 166 931 l 133 898 "},"¡":{"x_min":88,"x_max":289,"ha":377,"o":"m 289 460 q 260 386 289 414 q 188 358 231 358 q 115 386 143 358 q 88 460 88 414 q 115 533 88 505 q 188 562 143 562 q 260 533 231 562 q 289 460 289 505 m 285 316 l 285 -468 l 88 -468 l 88 316 l 285 316 "},"L":{"x_min":35,"x_max":933.328125,"ha":969,"o":"m 35 0 l 35 1026 l 232 1026 l 232 201 l 933 201 l 933 0 l 35 0 "}," ":{"x_min":0,"x_max":0,"ha":602},"%":{"x_min":0,"x_max":1595,"ha":1609,"o":"m 1595 267 q 1454 59 1595 134 q 1196 0 1341 0 q 939 59 1052 0 q 798 267 798 134 q 939 475 798 401 q 1196 537 1054 537 q 1454 475 1339 537 q 1595 267 1595 401 m 346 0 l 27 0 l 1257 1026 l 1567 1026 l 346 0 m 798 756 q 656 548 798 623 q 399 487 540 487 q 140 548 256 487 q 0 756 0 623 q 140 964 0 889 q 399 1026 256 1026 q 656 964 540 1026 q 798 756 798 889 m 1392 267 q 1333 311 1392 292 q 1256 330 1294 324 q 1181 336 1218 336 q 1006 280 1059 336 q 1002 267 1002 273 q 1060 224 1002 245 q 1137 206 1099 212 q 1212 201 1175 201 q 1386 256 1333 201 q 1392 267 1392 262 m 594 756 q 535 799 594 778 q 382 824 455 824 q 208 767 261 824 q 203 756 203 762 q 261 713 203 734 q 339 693 301 699 q 414 688 377 688 q 589 745 536 688 q 594 756 594 750 "},"P":{"x_min":38,"x_max":1278,"ha":1315,"o":"m 1278 548 q 1107 362 1278 420 q 834 320 990 320 l 235 320 l 235 0 l 38 0 l 38 1026 l 834 1026 q 1278 796 1278 1026 l 1278 548 m 1080 740 q 834 824 1080 824 l 235 824 l 235 522 l 834 522 q 977 535 917 522 q 1080 608 1080 556 l 1080 740 "},"À":{"x_min":86,"x_max":1326,"ha":1413,"o":"m 1128 0 l 1128 320 l 283 320 l 283 0 l 86 0 l 86 701 q 237 949 86 859 q 531 1026 365 1026 l 868 1026 q 1165 946 1030 1026 q 1326 701 1326 853 l 1326 0 l 1128 0 m 1128 658 q 1033 784 1128 737 q 868 824 951 824 l 531 824 q 377 777 460 824 q 283 658 283 723 l 283 522 l 1128 522 l 1128 658 m 795 1024 l 404 1120 l 435 1189 l 826 1094 l 795 1024 "},"_":{"x_min":-4,"x_max":1092,"ha":1088,"o":"m -4 -265 l -4 -63 l 1092 -63 l 1092 -265 l -4 -265 "},"ñ":{"x_min":87,"x_max":1327,"ha":1415,"o":"m 490 1068 q 610 1206 490 1206 q 725 1168 656 1206 q 822 1133 796 1133 q 883 1206 868 1133 l 904 1206 q 840 1082 904 1118 q 780 1068 810 1068 q 662 1104 733 1068 q 570 1142 593 1142 q 525 1118 540 1142 q 509 1068 518 1107 l 490 1068 m 1327 99 q 1303 24 1327 56 q 1239 -7 1280 -7 q 1167 20 1203 -7 l 284 719 l 284 0 l 87 0 l 87 925 q 110 1000 87 969 q 175 1032 133 1032 q 246 1003 210 1032 l 1129 305 l 1129 1026 l 1327 1026 l 1327 99 "},"+":{"x_min":45,"x_max":741,"ha":787,"o":"m 495 416 l 495 236 l 298 236 l 298 416 l 45 416 l 45 618 l 298 618 l 298 790 l 495 790 l 495 618 l 741 618 l 741 416 l 495 416 "},"‚":{"x_min":80.3125,"x_max":348.4375,"ha":429,"o":"m 80 -121 l 151 214 l 348 214 l 277 -121 l 80 -121 "},"Æ":{"x_min":69,"x_max":2346.171875,"ha":2470,"o":"m 1111 0 l 1111 320 l 266 320 l 266 0 l 69 0 l 69 701 q 220 949 69 859 q 514 1026 348 1026 l 851 1026 q 1148 946 1013 1026 q 1309 701 1309 853 l 1309 0 l 1111 0 m 1111 658 q 1016 784 1111 737 q 851 824 934 824 l 514 824 q 360 777 443 824 q 266 658 266 723 l 266 522 l 1111 522 l 1111 658 m 1106 0 l 1106 1026 l 2346 1026 l 2346 824 l 1303 824 l 1303 704 l 2154 704 l 2154 502 l 1303 502 l 1303 201 l 2346 201 l 2346 0 l 1106 0 "},"Ë":{"x_min":78,"x_max":1317.984375,"ha":1397,"o":"m 78 0 l 78 1026 l 1317 1026 l 1317 824 l 275 824 l 275 704 l 1126 704 l 1126 502 l 275 502 l 275 201 l 1317 201 l 1317 0 l 78 0 m 551 1197 q 600 1179 578 1197 q 622 1136 622 1162 q 600 1091 622 1108 q 551 1075 578 1075 q 501 1091 523 1075 q 479 1136 479 1108 q 500 1180 479 1163 q 551 1197 522 1197 m 783 1197 q 832 1179 810 1197 q 854 1136 854 1162 q 832 1091 854 1108 q 783 1075 810 1075 q 732 1091 754 1075 q 711 1136 711 1108 q 733 1179 711 1162 q 783 1197 755 1197 "},"'":{"x_min":56,"x_max":253.359375,"ha":309,"o":"m 56 744 l 56 1079 l 253 1079 l 253 744 l 56 744 "},"Š":{"x_min":0,"x_max":0,"ha":415},"Œ":{"x_min":82,"x_max":2363.25,"ha":2469,"o":"m 1322 227 q 1153 40 1322 99 q 878 0 1032 0 l 525 0 q 253 44 380 0 q 82 227 82 104 l 82 796 q 249 985 82 928 q 525 1026 365 1026 l 878 1026 q 1322 796 1322 1026 l 1322 227 m 1124 744 q 887 824 1124 824 l 516 824 q 285 744 285 824 l 285 279 q 516 201 285 201 l 887 201 q 1124 279 1124 201 l 1124 744 m 1123 0 l 1123 1026 l 2363 1026 l 2363 824 l 1321 824 l 1321 704 l 2171 704 l 2171 502 l 1321 502 l 1321 201 l 2363 201 l 2363 0 l 1123 0 "},"T":{"x_min":56,"x_max":1296,"ha":1329,"o":"m 774 824 l 774 0 l 577 0 l 577 824 l 56 824 l 56 1026 l 1296 1026 l 1296 824 l 774 824 "},"j":{"x_min":36.75,"x_max":932.359375,"ha":968,"o":"m 932 227 q 760 43 932 102 q 488 0 642 0 l 36 0 l 36 201 l 488 201 q 735 306 735 201 l 735 1026 l 932 1026 l 932 227 "},"1":{"x_min":47.203125,"x_max":594.359375,"ha":642,"o":"m 397 0 l 397 715 q 297 802 397 773 q 150 824 230 824 l 47 824 l 47 1026 l 150 1026 q 422 981 299 1026 q 594 796 594 919 l 594 0 l 397 0 "},"›":{"x_min":56,"x_max":268,"ha":313,"o":"m 194 422 l 56 487 l 56 570 l 268 463 l 268 381 l 56 269 l 56 355 l 194 422 "},"ä":{"x_min":86,"x_max":1326,"ha":1413,"o":"m 551 1197 q 600 1179 578 1197 q 622 1136 622 1162 q 600 1091 622 1108 q 551 1075 578 1075 q 501 1091 523 1075 q 479 1136 479 1108 q 500 1180 479 1163 q 551 1197 522 1197 m 783 1197 q 832 1179 810 1197 q 854 1136 854 1162 q 832 1091 854 1108 q 783 1075 810 1075 q 732 1091 754 1075 q 711 1136 711 1108 q 733 1179 711 1162 q 783 1197 755 1197 m 1128 0 l 1128 320 l 283 320 l 283 0 l 86 0 l 86 701 q 237 949 86 859 q 531 1026 365 1026 l 868 1026 q 1165 946 1030 1026 q 1326 701 1326 853 l 1326 0 l 1128 0 m 1128 658 q 1033 784 1128 737 q 868 824 951 824 l 531 824 q 377 777 460 824 q 283 658 283 723 l 283 522 l 1128 522 l 1128 658 "},"<":{"x_min":26,"x_max":1054,"ha":1080,"o":"m 104 485 q 26 581 26 512 q 104 677 26 651 l 1054 1005 l 1054 792 l 444 581 l 1054 370 l 1054 158 l 104 485 "},"t":{"x_min":56,"x_max":1296,"ha":1329,"o":"m 774 824 l 774 0 l 577 0 l 577 824 l 56 824 l 56 1026 l 1296 1026 l 1296 824 l 774 824 "},"ù":{"x_min":87,"x_max":1327,"ha":1394,"o":"m 794 1024 l 404 1120 l 435 1189 l 826 1094 l 794 1024 m 1327 227 q 884 0 1327 0 l 530 0 q 259 45 387 0 q 87 227 87 109 l 87 1026 l 284 1026 l 284 281 q 530 201 284 201 l 884 201 q 1129 281 1129 201 l 1129 1026 l 1327 1026 l 1327 227 "},"W":{"x_min":87,"x_max":1907,"ha":1995,"o":"m 1907 227 q 1745 29 1907 81 q 1463 0 1648 0 l 530 0 q 255 37 367 0 q 87 227 87 95 l 87 1026 l 284 1026 l 284 298 q 529 201 284 201 l 909 201 l 909 1026 l 1106 1026 l 1106 201 l 1463 201 q 1709 298 1709 201 l 1709 1026 l 1907 1026 l 1907 227 "},"ï":{"x_min":16,"x_max":390,"ha":429,"o":"m 88 1197 q 137 1179 115 1197 q 159 1136 159 1162 q 137 1091 159 1108 q 88 1075 115 1075 q 38 1091 60 1075 q 16 1136 16 1108 q 37 1180 16 1163 q 88 1197 59 1197 m 319 1197 q 368 1179 346 1197 q 390 1136 390 1162 q 368 1091 390 1108 q 319 1075 346 1075 q 268 1091 290 1075 q 247 1136 247 1108 q 269 1179 247 1162 q 319 1197 291 1197 m 104 0 l 104 1026 l 302 1026 l 302 0 l 104 0 "},">":{"x_min":7,"x_max":1033,"ha":1040,"o":"m 7 370 l 616 581 l 7 792 l 7 1005 l 955 677 q 1033 581 1033 649 q 955 485 1033 512 l 7 155 l 7 370 "},"v":{"x_min":19.0625,"x_max":1467.28125,"ha":1463,"o":"m 834 72 q 736 -8 779 -8 q 637 72 690 -8 l 19 1026 l 257 1026 l 740 282 l 1229 1026 l 1467 1026 l 834 72 "},"û":{"x_min":87,"x_max":1327,"ha":1394,"o":"m 777 1216 l 876 1074 l 762 1074 l 687 1164 l 616 1074 l 502 1074 l 600 1216 l 777 1216 m 1327 227 q 884 0 1327 0 l 530 0 q 259 45 387 0 q 87 227 87 109 l 87 1026 l 284 1026 l 284 281 q 530 201 284 201 l 884 201 q 1129 281 1129 201 l 1129 1026 l 1327 1026 l 1327 227 "},"Ò":{"x_min":84,"x_max":1324,"ha":1408,"o":"m 1324 227 q 1155 40 1324 99 q 880 0 1034 0 l 527 0 q 255 44 382 0 q 84 227 84 104 l 84 796 q 251 985 84 928 q 527 1026 367 1026 l 880 1026 q 1324 796 1324 1026 l 1324 227 m 1126 744 q 889 824 1126 824 l 518 824 q 287 744 287 824 l 287 279 q 518 201 287 201 l 889 201 q 1126 279 1126 201 l 1126 744 m 794 1024 l 404 1120 l 435 1189 l 825 1094 l 794 1024 "},"&":{"x_min":72,"x_max":1427.953125,"ha":1500,"o":"m 515 0 q 242 43 360 0 q 72 227 72 104 l 72 796 q 239 987 72 928 q 515 1026 349 1026 l 1022 1026 l 1022 824 l 515 824 q 377 796 442 824 q 295 696 295 760 q 296 685 295 691 q 298 672 296 678 l 1427 672 l 1427 470 l 1215 470 l 1215 201 l 1427 201 l 1427 0 l 515 0 m 1018 470 l 271 470 l 271 291 q 506 201 271 201 l 1018 201 l 1018 470 "},"I":{"x_min":105,"x_max":302.359375,"ha":398,"o":"m 105 0 l 105 1026 l 302 1026 l 302 0 l 105 0 "},"G":{"x_min":120,"x_max":1360,"ha":1480,"o":"m 563 0 q 287 37 397 0 q 120 227 120 93 l 120 796 q 287 987 120 928 q 563 1026 397 1026 l 1360 1026 l 1360 824 l 563 824 q 319 740 319 824 l 319 287 q 563 201 319 201 l 1162 201 l 1162 502 l 492 502 l 492 704 l 1260 704 q 1330 674 1301 704 q 1360 602 1360 644 l 1360 0 l 563 0 "},"`":{"x_min":404.25,"x_max":826.203125,"ha":1019,"o":"m 794 1024 l 404 1120 l 435 1189 l 826 1094 l 794 1024 "},"r":{"x_min":79,"x_max":1411.546875,"ha":1378,"o":"m 1029 0 l 394 349 l 276 349 l 276 0 l 79 0 l 79 1026 l 876 1026 q 1157 996 1064 1026 q 1319 796 1319 944 l 1319 548 q 1210 392 1319 449 q 1012 347 1120 347 l 767 347 l 1411 0 l 1029 0 m 1121 758 q 876 824 1121 824 l 276 824 l 276 547 l 1012 547 q 1079 560 1044 547 q 1121 605 1121 577 l 1121 758 "},"¿":{"x_min":-543,"x_max":716,"ha":1341,"o":"m 513 480 q 541 553 513 525 q 615 582 570 582 q 687 553 658 582 q 716 480 716 525 q 687 406 716 434 q 615 378 658 378 q 541 406 570 378 q 513 480 513 434 m -318 -185 q -84 -246 -318 -246 l 712 -246 l 712 -448 l -84 -448 q -506 -291 -393 -448 q -543 -182 -543 -239 q -506 -77 -543 -127 q -84 75 -397 75 l 514 75 l 514 336 l 712 336 l 712 -24 q 682 -96 712 -66 q 614 -126 653 -126 l -84 -126 q -318 -185 -318 -126 "},"ý":{"x_min":35,"x_max":1275,"ha":1361,"o":"m 1275 227 q 1104 43 1275 104 q 831 0 986 0 l 235 0 l 235 201 l 831 201 q 1078 285 1078 201 l 1078 320 l 479 320 q 197 366 311 320 q 35 573 35 431 l 35 1026 l 232 1026 l 232 613 q 478 522 232 522 l 1078 522 l 1078 1026 l 1275 1026 l 1275 227 m 441 1094 l 831 1189 l 862 1120 l 472 1024 l 441 1094 "},"x":{"x_min":-35.390625,"x_max":1694.578125,"ha":1681,"o":"m 997 508 l 1682 -1 l 1354 -1 l 828 384 l 304 -1 l -25 -1 l 661 508 l -35 1026 l 299 1026 l 828 633 l 1357 1026 l 1694 1026 l 997 508 "},"è":{"x_min":78,"x_max":1317.984375,"ha":1397,"o":"m 795 1024 l 404 1120 l 435 1189 l 826 1094 l 795 1024 m 78 0 l 78 1026 l 1317 1026 l 1317 824 l 275 824 l 275 704 l 1126 704 l 1126 502 l 275 502 l 275 201 l 1317 201 l 1317 0 l 78 0 "},"Ø":{"x_min":102,"x_max":1342,"ha":1409,"o":"m 1342 227 q 1309 131 1342 173 q 1217 59 1276 88 q 1077 15 1158 30 q 898 0 996 0 l 544 0 q 376 15 455 0 q 235 59 296 30 q 138 131 174 88 q 102 227 102 173 l 102 796 q 133 894 102 852 q 223 966 165 937 q 363 1010 281 995 q 544 1026 445 1026 l 898 1026 q 1342 796 1342 1026 l 1342 227 m 1144 744 q 1088 802 1144 783 l 475 202 q 505 201 490 201 q 536 201 520 201 l 907 201 q 1144 279 1144 201 l 1144 744 m 534 824 q 305 744 305 824 l 305 279 q 326 238 305 255 l 926 824 l 534 824 "},"h":{"x_min":94,"x_max":1335.359375,"ha":1386,"o":"m 1138 0 l 1138 502 l 291 502 l 291 0 l 94 0 l 94 1026 l 291 1026 l 291 704 l 1138 704 l 1138 1026 l 1335 1026 l 1335 0 l 1138 0 "},".":{"x_min":73,"x_max":274,"ha":346,"o":"m 274 97 q 245 24 274 52 q 173 -4 216 -4 q 100 24 128 -4 q 73 97 73 52 q 100 171 73 143 q 173 200 128 200 q 245 171 216 200 q 274 97 274 143 "},";":{"x_min":86,"x_max":294,"ha":380,"o":"m 294 553 q 265 480 294 508 q 191 452 236 452 q 119 480 148 452 q 91 553 91 508 q 119 627 91 599 q 193 656 148 656 q 265 627 236 656 q 294 553 294 599 m 86 -37 l 86 321 l 283 321 l 283 -37 l 86 -37 "},"f":{"x_min":76,"x_max":1315.984375,"ha":1370,"o":"m 273 824 l 273 704 l 1072 704 l 1072 502 l 273 502 l 273 0 l 76 0 l 76 1026 l 1315 1026 l 1315 824 l 273 824 "},"“":{"x_min":42.1875,"x_max":568.9375,"ha":618,"o":"m 498 1078 l 568 743 l 371 743 l 300 1078 l 498 1078 m 239 1078 l 310 743 l 112 743 l 42 1078 l 239 1078 "},"A":{"x_min":86,"x_max":1326,"ha":1413,"o":"m 1128 0 l 1128 320 l 283 320 l 283 0 l 86 0 l 86 701 q 237 949 86 859 q 531 1026 365 1026 l 868 1026 q 1165 946 1030 1026 q 1326 701 1326 853 l 1326 0 l 1128 0 m 1128 658 q 1033 784 1128 737 q 868 824 951 824 l 531 824 q 377 777 460 824 q 283 658 283 723 l 283 522 l 1128 522 l 1128 658 "},"6":{"x_min":38,"x_max":1278,"ha":1315,"o":"m 1278 227 q 1105 47 1278 111 q 834 0 975 0 l 480 0 q 208 43 326 0 q 38 227 38 104 l 38 796 q 205 985 38 928 q 480 1026 319 1026 l 1099 1026 l 1099 824 l 424 824 q 235 767 235 824 l 235 704 l 834 704 q 1114 674 1022 704 q 1278 477 1278 624 l 1278 227 m 1080 423 q 843 502 1080 502 l 235 502 l 235 287 q 472 201 235 201 l 834 201 q 1080 287 1080 201 l 1080 423 "},"‘":{"x_min":77.578125,"x_max":345.71875,"ha":429,"o":"m 274 1078 l 345 743 l 148 743 l 77 1078 l 274 1078 "},"O":{"x_min":84,"x_max":1324,"ha":1408,"o":"m 1324 227 q 1155 40 1324 99 q 880 0 1034 0 l 527 0 q 255 44 382 0 q 84 227 84 104 l 84 796 q 251 985 84 928 q 527 1026 367 1026 l 880 1026 q 1324 796 1324 1026 l 1324 227 m 1126 744 q 889 824 1126 824 l 518 824 q 287 744 287 824 l 287 279 q 518 201 287 201 l 889 201 q 1126 279 1126 201 l 1126 744 "},"n":{"x_min":87,"x_max":1327,"ha":1415,"o":"m 1327 99 q 1303 24 1327 56 q 1239 -7 1280 -7 q 1167 20 1203 -7 l 284 719 l 284 0 l 87 0 l 87 925 q 110 1000 87 969 q 175 1032 133 1032 q 246 1003 210 1032 l 1129 305 l 1129 1026 l 1327 1026 l 1327 99 "},"3":{"x_min":28.609375,"x_max":1096,"ha":1123,"o":"m 1096 213 q 923 37 1096 93 q 652 0 804 0 l 28 0 l 28 201 l 652 201 q 897 275 897 201 l 897 362 q 846 397 897 380 q 778 412 801 412 l 144 412 l 144 614 l 782 614 q 849 625 809 614 q 897 663 897 640 l 897 769 q 652 824 897 824 l 28 824 l 28 1026 l 667 1026 q 1096 810 1096 1026 l 1096 615 q 1057 515 1096 558 q 1096 409 1096 472 l 1096 213 "},"9":{"x_min":31,"x_max":1271,"ha":1302,"o":"m 1271 251 q 1102 55 1271 127 q 827 0 971 0 l 206 0 l 206 201 l 827 201 q 1073 279 1073 201 l 1073 320 l 474 320 q 203 367 330 320 q 31 548 31 430 l 31 796 q 201 982 31 921 q 474 1026 319 1026 l 827 1026 q 1271 796 1271 1026 l 1271 251 m 1073 780 q 933 826 1073 826 q 910 826 925 826 q 880 826 895 826 q 850 826 865 826 q 827 826 835 826 l 474 826 q 228 753 228 826 l 228 595 q 468 522 228 522 l 1073 522 l 1073 780 "},"l":{"x_min":35,"x_max":933.328125,"ha":969,"o":"m 35 0 l 35 1026 l 232 1026 l 232 201 l 933 201 l 933 0 l 35 0 "},"4":{"x_min":23,"x_max":1407.25,"ha":1429,"o":"m 1263 320 l 1263 0 l 1065 0 l 1065 320 l 465 320 q 195 376 330 320 q 23 562 23 447 l 23 1026 l 220 1026 l 220 663 q 310 549 220 587 q 465 522 379 522 l 1065 522 l 1065 811 l 1263 811 l 1263 522 l 1407 522 l 1407 320 l 1263 320 "},"p":{"x_min":38,"x_max":1278,"ha":1315,"o":"m 1278 548 q 1107 362 1278 420 q 834 320 990 320 l 235 320 l 235 0 l 38 0 l 38 1026 l 834 1026 q 1278 796 1278 1026 l 1278 548 m 1080 740 q 834 824 1080 824 l 235 824 l 235 522 l 834 522 q 977 535 917 522 q 1080 608 1080 556 l 1080 740 "},"Ü":{"x_min":87,"x_max":1327,"ha":1394,"o":"m 1327 227 q 884 0 1327 0 l 530 0 q 259 45 387 0 q 87 227 87 109 l 87 1026 l 284 1026 l 284 281 q 530 201 284 201 l 884 201 q 1129 281 1129 201 l 1129 1026 l 1327 1026 l 1327 227 m 551 1197 q 600 1179 578 1197 q 622 1136 622 1162 q 600 1091 622 1108 q 551 1075 578 1075 q 501 1091 523 1075 q 479 1136 479 1108 q 500 1180 479 1163 q 551 1197 522 1197 m 782 1197 q 831 1179 809 1197 q 853 1136 853 1162 q 831 1091 853 1108 q 782 1075 809 1075 q 731 1091 753 1075 q 710 1136 710 1108 q 732 1179 710 1162 q 782 1197 754 1197 "},"à":{"x_min":86,"x_max":1326,"ha":1413,"o":"m 795 1024 l 404 1120 l 435 1189 l 826 1094 l 795 1024 m 1128 0 l 1128 320 l 283 320 l 283 0 l 86 0 l 86 701 q 237 949 86 859 q 531 1026 365 1026 l 868 1026 q 1165 946 1030 1026 q 1326 701 1326 853 l 1326 0 l 1128 0 m 1128 658 q 1033 784 1128 737 q 868 824 951 824 l 531 824 q 377 777 460 824 q 283 658 283 723 l 283 522 l 1128 522 l 1128 658 "},"ó":{"x_min":84,"x_max":1324,"ha":1408,"o":"m 1126 744 q 889 824 1126 824 l 518 824 q 287 744 287 824 l 287 279 q 518 201 287 201 l 889 201 q 1126 279 1126 201 l 1126 744 m 1324 227 q 1155 40 1324 99 q 880 0 1034 0 l 527 0 q 255 44 382 0 q 84 227 84 104 l 84 796 q 251 985 84 928 q 527 1026 367 1026 l 880 1026 q 1324 796 1324 1026 l 1324 227 m 440 1094 l 831 1189 l 862 1120 l 472 1024 l 440 1094 "}}}
